<?xml version="1.0" encoding="UTF-8" standalone="no"?>
<svg
   width="24"
   height="24"
   viewBox="0 0 24 24"
   fill="currentColor"
   class="icon icon-tabler icons-tabler-filled icon-tabler-chef-hat"
   version="1.1"
   id="svg3"
   sodipodi:docname="chef-hat.svg"
   xmlns:inkscape="http://www.inkscape.org/namespaces/inkscape"
   xmlns:sodipodi="http://sodipodi.sourceforge.net/DTD/sodipodi-0.dtd"
   xmlns="http://www.w3.org/2000/svg"
   xmlns:svg="http://www.w3.org/2000/svg">
  <defs
     id="defs3" />
  <sodipodi:namedview
     id="namedview3"
     pagecolor="#505050"
     bordercolor="#eeeeee"
     borderopacity="1"
     inkscape:showpageshadow="0"
     inkscape:pageopacity="0"
     inkscape:pagecheckerboard="0"
     inkscape:deskcolor="#505050">
    <inkscape:page
       x="0"
       y="0"
       width="24"
       height="24"
       id="page2"
       margin="0"
       bleed="0" />
  </sodipodi:namedview>
  <path
     stroke="none"
     d="M 0,0 H 24 V 24 H 0 Z"
     fill="none"
     id="path1" />
  <path
     d="M 19,19.002 V 21 a 1,1 0 0 1 -0.883,0.993 L 18,22 H 6 A 1,1 0 0 1 5,21 v -1.994 a 1,1 0 0 1 1,-1 l 12,-0.004 a 1,1 0 0 1 1,1"
     id="path2"
     style="fill:#e3e2db" />
  <path
     d="m 12,2 a 5,5 0 0 1 4.533,2.888 l 0.06,0.137 0.136,-0.009 a 5,5 0 0 1 4.99,3.477 l 0.063,0.213 a 5,5 0 0 1 -2.696,5.831 l -0.087,0.037 v 1.428 a 1,1 0 0 1 -1,1 l -12,0.004 A 1,1 0 0 1 5.006,16.123 L 4.999,16.006 V 14.573 L 4.876,14.518 a 5,5 0 0 1 -2.6,-3.001 L 2.212,11.294 A 5,5 0 0 1 7.405,5.024 L 7.471,4.882 a 5,5 0 0 1 4.302,-2.877 z"
     id="path3"
     style="fill:#c8c4b7" />
</svg>
